<svg xmlns="http://www.w3.org/2000/svg" width="512" height="512" style=""><rect id="backgroundrect" width="100%" height="100%" x="0" y="0" fill="none" stroke="none"/><title>ionicons-v5-o</title><g class="currentLayer" style=""><title>Layer 1</title><path d="M426.18978095054626,80.72992700338364 H90.18978095054626 a56.06,56.06 0 0 0 -56,56 V376.72992700338364 a56.06,56.06 0 0 0 56,56 H426.18978095054626 a56.06,56.06 0 0 0 56,-56 V136.72992700338364 A56.06,56.06 0 0 0 426.18978095054626,80.72992700338364 zm-14.18,92.63 l-144,112 a16,16 0 0 1 -19.64,0 l-144,-112 a16,16 0 1 1 19.64,-25.26 L258.18978095054626,252.45992700338363 L392.36978095054627,148.09992700338364 a16,16 0 0 1 19.64,25.26 z" id="svg_1" class="selected" fill-opacity="1" fill="#4caf50"/></g></svg>