<?xml version="1.0" standalone="no"?>
<!DOCTYPE svg PUBLIC "-//W3C//DTD SVG 20010904//EN"
 "http://www.w3.org/TR/2001/REC-SVG-20010904/DTD/svg10.dtd">
<svg version="1.0" xmlns="http://www.w3.org/2000/svg"
 width="511.000000pt" height="512.000000pt" viewBox="0 0 511.000000 512.000000"
 preserveAspectRatio="xMidYMid meet">

<g transform="translate(0.000000,512.000000) scale(0.100000,-0.100000)"
fill="#000000" stroke="none">
<path d="M4208 5115 c-1 -1 -21 -5 -43 -8 -312 -40 -608 -376 -713 -807 l-8
-35 -552 -7 -551 -8 -72 -25 c-100 -34 -141 -61 -255 -162 -54 -48 -505 -492
-1002 -988 -889 -885 -904 -901 -938 -975 -93 -200 -95 -389 -8 -569 36 -72
194 -239 740 -781 570 -565 663 -653 734 -686 182 -87 368 -82 560 14 72 36
113 75 1046 1012 1035 1040 1009 1011 1071 1175 l30 80 6 640 c4 352 2 695 -3
763 -8 110 -12 131 -43 195 -19 40 -52 95 -75 123 -41 52 -146 129 -215 158
-38 15 -38 15 -48 -11 -18 -48 -26 -170 -34 -528 l-6 -270 -41 -63 c-40 -61
-110 -122 -158 -137 -13 -4 -67 -8 -120 -7 -132 0 -193 32 -267 139 l-38 55 0
112 c0 94 4 117 22 151 36 66 160 171 180 152 3 -4 9 -84 11 -177 l5 -170 29
-25 c40 -34 89 -33 128 3 l31 27 5 195 c8 365 15 498 30 560 3 14 8 36 11 49
17 94 105 283 174 377 81 110 187 194 291 231 57 21 183 25 244 9 196 -52 371
-242 463 -503 12 -34 24 -71 26 -83 3 -11 8 -30 11 -42 3 -13 12 -59 20 -103
19 -105 13 -410 -10 -505 -9 -36 -19 -75 -22 -88 -18 -83 -87 -230 -149 -317
-49 -69 -160 -177 -207 -201 l-31 -16 6 -105 c3 -57 8 -107 11 -110 7 -7 90
36 166 87 221 149 400 482 448 835 9 65 9 335 0 400 -15 109 -50 258 -73 310
-7 17 -28 64 -45 105 -73 171 -251 382 -390 463 -62 36 -157 71 -223 82 -39 7
-154 15 -159 10z m-1769 -2259 c24 -9 72 -31 106 -49 l62 -33 29 24 c41 34 92
54 117 46 36 -10 76 -55 83 -91 7 -39 -8 -82 -41 -113 l-24 -23 34 -66 c48
-96 68 -174 67 -261 -1 -155 -74 -290 -156 -290 -65 0 -110 36 -118 95 -1 11
10 48 25 82 33 74 38 121 19 186 -30 110 -137 228 -242 269 -78 30 -165 30
-208 0 -41 -30 -64 -75 -64 -123 1 -49 59 -174 141 -303 105 -164 147 -277
150 -396 1 -64 -3 -84 -28 -137 -38 -80 -106 -147 -184 -183 -55 -25 -73 -28
-162 -28 -115 1 -174 15 -263 65 l-64 35 -32 -31 c-38 -37 -92 -49 -135 -31
-74 30 -83 120 -20 186 l30 31 -28 49 c-114 195 -106 429 18 540 34 30 64 37
104 24 74 -24 94 -93 51 -178 -33 -67 -38 -94 -25 -154 25 -119 108 -223 227
-286 34 -18 62 -31 62 -29 0 3 17 1 38 -4 48 -11 111 5 146 38 78 72 58 165
-87 397 -48 77 -101 176 -119 220 -28 72 -31 92 -32 186 0 126 11 157 86 236
55 58 120 98 185 113 55 13 201 5 252 -13z"/>
</g>
</svg>
